<svg width="46" height="46" viewBox="0 0 46 46" fill="none" xmlns="http://www.w3.org/2000/svg">
<path fill-rule="evenodd" clip-rule="evenodd" d="M39.0512 0C42.4567 0 45.2172 2.76061 45.2172 6.16598V39.0512C45.2172 42.4567 42.4567 45.2172 39.0512 45.2172H6.16598C2.76061 45.2172 0 42.4567 0 39.0512V6.16598C0 2.76061 2.76061 0 6.16598 0H39.0512ZM39.0512 4.11065C40.1864 4.11065 41.1065 5.03086 41.1065 6.16598V39.0512C41.1065 40.1864 40.1864 41.1065 39.0512 41.1065H28.7746V26.719H33.0418C33.9264 26.719 34.7118 26.153 34.9917 25.3136L35.9022 22.5821C36.235 21.5838 35.492 20.5531 34.4399 20.5531H28.7746V16.4424C28.7746 15.4148 29.8022 14.3871 30.8299 14.3871H34.9405C36.0757 14.3871 36.9959 13.4669 36.9959 12.3318V10.9219C36.9959 10.2579 36.5719 9.6627 35.9298 9.49328C33.2357 8.78231 30.8299 8.78231 30.8299 8.78231C25.6916 8.78231 22.6086 12.3318 22.6086 15.4148V20.5531H18.4979C17.3628 20.5531 16.4426 21.4732 16.4426 22.6084V24.6637C16.4426 25.7989 17.3628 26.719 18.4979 26.719H22.6086V41.1065H6.16598C5.03086 41.1065 4.11065 40.1864 4.11065 39.0512V6.16598C4.11065 5.03086 5.03086 4.11065 6.16598 4.11065H39.0512Z" fill="white"/>
</svg>
