<svg width="46" height="46" viewBox="0 0 46 46" fill="none" xmlns="http://www.w3.org/2000/svg">
<path fill-rule="evenodd" clip-rule="evenodd" d="M22.6093 34.9408C29.42 34.9408 34.9413 29.4196 34.9413 22.6088C34.9413 15.7981 29.42 10.2769 22.6093 10.2769C15.7985 10.2769 10.2773 15.7981 10.2773 22.6088C10.2773 29.4196 15.7985 34.9408 22.6093 34.9408ZM22.6093 30.8301C27.1497 30.8301 30.8306 27.1492 30.8306 22.6088C30.8306 18.0683 27.1497 14.3875 22.6093 14.3875C18.0688 14.3875 14.388 18.0683 14.388 22.6088C14.388 27.1492 18.0688 30.8301 22.6093 30.8301Z" fill="white"/>
<path d="M34.9411 8.22119C33.8059 8.22119 32.8857 9.1414 32.8857 10.2765C32.8857 11.4116 33.8059 12.3318 34.9411 12.3318C36.0762 12.3318 36.9964 11.4116 36.9964 10.2765C36.9964 9.1414 36.0762 8.22119 34.9411 8.22119Z" fill="white"/>
<path fill-rule="evenodd" clip-rule="evenodd" d="M1.3441 6.73337C0 9.37132 0 12.8246 0 19.7311V25.486C0 32.3926 0 35.8459 1.3441 38.4837C2.52641 40.8042 4.41295 42.6908 6.73337 43.873C9.37132 45.2172 12.8246 45.2172 19.7311 45.2172H25.486C32.3926 45.2172 35.8459 45.2172 38.4837 43.873C40.8042 42.6908 42.6908 40.8042 43.873 38.4837C45.2172 35.8459 45.2172 32.3926 45.2172 25.486V19.7311C45.2172 12.8246 45.2172 9.37132 43.873 6.73337C42.6908 4.41295 40.8042 2.52641 38.4837 1.3441C35.8459 0 32.3926 0 25.486 0H19.7311C12.8246 0 9.37132 0 6.73337 1.3441C4.41295 2.52641 2.52641 4.41295 1.3441 6.73337ZM25.486 4.11065H19.7311C16.21 4.11065 13.8164 4.11386 11.9663 4.26501C10.1641 4.41225 9.24247 4.67914 8.59957 5.00671C7.05263 5.79493 5.79493 7.05263 5.00671 8.59957C4.67914 9.24247 4.41225 10.1641 4.26501 11.9663C4.11386 13.8164 4.11065 16.21 4.11065 19.7311V25.486C4.11065 29.0072 4.11386 31.4007 4.26501 33.2509C4.41225 35.0532 4.67914 35.9748 5.00671 36.6177C5.79493 38.1645 7.05263 39.4222 8.59957 40.2104C9.24247 40.538 10.1641 40.805 11.9663 40.9522C13.8164 41.1032 16.21 41.1065 19.7311 41.1065H25.486C29.0072 41.1065 31.4007 41.1032 33.2509 40.9522C35.0532 40.805 35.9748 40.538 36.6177 40.2104C38.1645 39.4222 39.4222 38.1645 40.2104 36.6177C40.538 35.9748 40.805 35.0532 40.9522 33.2509C41.1032 31.4007 41.1065 29.0072 41.1065 25.486V19.7311C41.1065 16.21 41.1032 13.8164 40.9522 11.9663C40.805 10.1641 40.538 9.24247 40.2104 8.59957C39.4222 7.05263 38.1645 5.79493 36.6177 5.00671C35.9748 4.67914 35.0532 4.41225 33.2509 4.26501C31.4007 4.11386 29.0072 4.11065 25.486 4.11065Z" fill="white"/>
</svg>
