<svg width="50" height="40" viewBox="0 0 50 40" fill="none" xmlns="http://www.w3.org/2000/svg">
<path fill-rule="evenodd" clip-rule="evenodd" d="M15.5136 39.4618C34.1275 39.4618 44.3087 24.2776 44.3087 11.1115C44.3087 10.6793 44.3087 10.2503 44.2791 9.82291C46.2596 8.4145 47.9689 6.66581 49.3278 4.66493C47.483 5.47111 45.5222 5.99982 43.517 6.23291C45.6283 4.98721 47.2092 3.03015 47.9664 0.720865C45.9785 1.88157 43.8056 2.70075 41.539 3.14029C37.7062 -0.871222 31.296 -1.06558 27.2191 2.70795C24.5924 5.14107 23.4751 8.76882 24.2915 12.2291C16.1549 11.826 8.57318 8.04282 3.43322 1.81918C0.747317 6.37217 2.1211 12.1946 6.568 15.1182C4.95745 15.072 3.38142 14.6451 1.97311 13.8729V13.9994C1.97558 18.7418 5.3718 22.8253 10.0925 23.765C8.60278 24.1657 7.03908 24.2238 5.52472 23.9348C6.84917 27.9949 10.6499 30.7758 14.9784 30.8559C11.3947 33.629 6.96756 35.1348 2.40967 35.1299C1.60562 35.1275 0.801577 35.0813 0 34.9866C4.62942 37.9103 10.0136 39.4618 15.5136 39.4545" fill="white"/>
</svg>
